<svg xmlns="http://www.w3.org/2000/svg" viewBox="0 0 1024 1024" width="1024" height="1024">
<rect width="100%" height="100%" fill="none"/>
<path d="M 332 663 L 335 668 L 341 671 L 374 678 L 428 683 L 503 685 L 575 684 L 631 680 L 671 674 L 682 671 L 691 665 L 688 660 L 682 657 L 654 651 L 559 644 L 464 644 L 396 648 L 353 654 L 339 658 Z" fill="#000" fill-rule="evenodd"/>
<path d="M 578 446 L 576 444 L 571 444 L 547 450 L 513 450 L 493 445 L 489 448 L 489 451 L 494 459 L 507 470 L 522 476 L 540 477 L 554 473 L 564 467 L 574 457 L 578 450 Z" fill="#000" fill-rule="evenodd"/>
<path d="M 457 367 L 448 373 L 443 382 L 441 390 L 442 407 L 446 417 L 451 423 L 459 427 L 466 427 L 476 420 L 480 412 L 482 394 L 480 384 L 474 373 L 465 367 Z M 458 376 L 465 377 L 468 382 L 467 387 L 462 391 L 457 390 L 453 384 L 455 378 Z" fill="#000" fill-rule="evenodd"/>
<path d="M 592 363 L 585 366 L 579 373 L 575 385 L 575 400 L 579 412 L 587 421 L 592 423 L 600 423 L 604 421 L 612 411 L 615 400 L 615 388 L 612 377 L 606 368 L 600 364 Z M 591 372 L 596 372 L 601 377 L 600 384 L 595 388 L 591 387 L 586 380 L 587 376 Z" fill="#000" fill-rule="evenodd"/>
<path d="M 423 250 L 422 270 L 424 281 L 428 290 L 435 296 L 425 273 Z" fill="#000" fill-rule="evenodd"/>
<path d="M 296 303 L 294 311 L 297 333 L 286 339 L 278 348 L 276 354 L 276 367 L 284 379 L 301 386 L 300 390 L 293 393 L 285 401 L 282 408 L 281 417 L 283 425 L 292 435 L 308 441 L 312 487 L 301 494 L 295 501 L 292 508 L 292 520 L 299 532 L 310 538 L 317 539 L 318 543 L 303 554 L 299 562 L 298 571 L 301 580 L 308 588 L 326 595 L 328 608 L 335 616 L 358 623 L 389 625 L 467 624 L 547 619 L 626 610 L 679 601 L 731 589 L 737 583 L 738 576 L 728 522 L 717 440 L 703 289 L 697 281 L 692 279 L 613 285 L 613 283 L 620 281 L 636 272 L 647 260 L 648 249 L 645 243 L 641 240 L 622 235 L 594 235 L 558 242 L 546 222 L 535 211 L 524 204 L 507 199 L 477 199 L 449 205 L 444 201 L 435 200 L 427 203 L 423 207 L 420 217 L 395 231 L 380 246 L 372 263 L 371 287 L 330 286 L 307 295 Z M 339 594 L 345 592 L 347 600 L 350 603 L 350 593 L 357 591 L 361 609 L 358 610 L 342 605 L 340 603 Z M 311 565 L 320 555 L 322 565 L 326 569 L 335 572 L 359 571 L 386 565 L 390 566 L 393 569 L 393 572 L 389 576 L 358 581 L 329 583 L 317 579 L 311 572 Z M 336 538 L 339 539 L 341 554 L 340 562 L 336 562 L 334 560 L 332 540 Z M 349 537 L 351 539 L 353 560 L 347 562 L 345 560 L 343 539 Z M 304 512 L 307 506 L 314 501 L 316 511 L 324 516 L 347 517 L 384 511 L 388 517 L 385 521 L 348 527 L 321 528 L 311 525 L 305 519 Z M 321 439 L 328 440 L 334 499 L 333 507 L 327 505 Z M 337 438 L 340 440 L 346 496 L 345 506 L 339 505 L 332 440 Z M 293 413 L 296 407 L 303 402 L 306 412 L 319 418 L 335 418 L 372 412 L 376 415 L 376 419 L 373 422 L 327 429 L 309 429 L 301 426 L 295 420 Z M 316 385 L 322 386 L 323 408 L 317 407 L 315 394 Z M 327 384 L 334 385 L 335 407 L 328 406 Z M 287 359 L 289 354 L 297 347 L 300 358 L 308 363 L 335 363 L 367 357 L 371 361 L 371 365 L 366 368 L 342 372 L 306 375 L 295 372 L 289 366 Z M 325 301 L 327 303 L 330 352 L 324 353 L 322 350 L 321 331 L 317 317 L 316 334 L 318 352 L 312 353 L 307 310 Z M 689 294 L 702 434 L 714 525 L 723 571 L 722 577 L 638 594 L 558 604 L 447 611 L 379 611 L 370 609 L 368 591 L 381 587 L 392 588 L 398 585 L 405 575 L 405 567 L 398 557 L 390 554 L 383 554 L 364 559 L 361 537 L 375 533 L 386 534 L 391 532 L 399 523 L 400 514 L 395 504 L 388 500 L 381 499 L 358 504 L 356 501 L 350 438 L 363 434 L 374 435 L 379 433 L 386 427 L 389 417 L 385 407 L 376 401 L 367 400 L 355 404 L 346 404 L 344 383 L 359 379 L 371 380 L 375 378 L 383 368 L 383 358 L 377 349 L 367 345 L 345 350 L 340 349 L 336 306 L 337 300 L 373 301 L 375 305 L 383 312 L 393 315 L 411 316 L 445 309 L 466 313 L 489 313 L 513 308 L 524 303 L 602 300 L 678 293 Z M 622 246 L 597 251 L 583 256 L 518 294 L 492 301 L 464 301 L 485 291 L 516 271 L 547 257 L 580 248 L 609 245 Z M 414 233 L 415 234 L 406 253 L 406 274 L 413 296 L 417 303 L 409 305 L 394 304 L 385 300 L 382 286 L 383 265 L 390 251 L 398 243 Z M 511 231 L 523 251 L 523 256 L 510 262 L 483 280 L 462 291 L 427 302 L 424 300 L 415 273 L 415 250 L 421 237 L 436 222 L 460 214 L 477 211 L 496 217 Z M 497 211 L 504 210 L 512 212 L 529 221 L 538 231 L 546 246 L 531 252 L 523 236 L 513 222 Z M 431 212 L 436 208 L 440 209 L 433 213 Z" fill="#000" fill-rule="evenodd"/>
</svg>
